<svg version="1.1" id="Livello_1" xmlns="http://www.w3.org/2000/svg" xmlns:xlink="http://www.w3.org/1999/xlink" x="0px" y="0px"
     width="444px" height="148px" viewBox="0 0 444 148" enable-background="new 0 0 444 148" xml:space="preserve">
<g>
    <g>
        <path fill="#F9BB05" d="M78.9,114.4h-24v-8.1h-0.3c-4.2,7.3-12.5,10.5-20.5,10.5C14.1,116.8,0,98.7,0,77.8
			c0-20.9,13.9-38.9,33.9-38.9c7.8,0,16,3.1,21,9.5v-7.1h24V114.4z M24.8,77.9c0,9.3,5.7,16.4,15.4,16.4s15.4-7.1,15.4-16.4
			c0-9-5.7-16.5-15.4-16.5S24.8,69,24.8,77.9z"/>
    </g>
    <g>
        <path fill="#F9BB05" d="M99.1,41.3h36.7c27.8,0,50.6,23.3,50.6,53.2c0,29.9-23,53.2-50.6,53.2H99.1V41.3z M125,124.3h5.8
			c15.5,0,28.7-9,28.7-29.8c0-19.1-11.8-29.8-28.4-29.8H125V124.3z"/>
    </g>
    <polygon fill="#007C2F" points="55,41.3 99.7,41.3 99.7,147.6 79.8,65.5 	"/>
    <circle fill="#007C2F" cx="88.1" cy="16.8" r="16.6"/>
</g>
    <g>
        <path fill="#F9BB05" d="M221.4,64.9h-5.1l-2-5.3H205l-1.9,5.3h-5l9-23.2h5L221.4,64.9z M212.8,55.7l-3.2-8.6l-3.1,8.6H212.8z"/>
        <path fill="#F9BB05" d="M222.8,57.3l4.6-0.4c0.3,1.5,0.8,2.7,1.7,3.4s2,1.1,3.4,1.1c1.5,0,2.6-0.3,3.4-1c0.8-0.6,1.1-1.4,1.1-2.2
		c0-0.5-0.2-1-0.5-1.4c-0.3-0.4-0.9-0.7-1.7-1c-0.5-0.2-1.8-0.5-3.8-1c-2.5-0.6-4.3-1.4-5.3-2.3c-1.4-1.3-2.1-2.8-2.1-4.7
		c0-1.2,0.3-2.3,1-3.3c0.7-1,1.6-1.8,2.9-2.4c1.3-0.5,2.8-0.8,4.6-0.8c2.9,0,5.1,0.6,6.6,1.9c1.5,1.3,2.2,3,2.3,5.1l-4.7,0.2
		c-0.2-1.2-0.6-2-1.3-2.6c-0.7-0.5-1.6-0.8-3-0.8c-1.4,0-2.4,0.3-3.2,0.8c-0.5,0.4-0.7,0.8-0.7,1.4c0,0.5,0.2,1,0.7,1.4
		c0.6,0.5,2,1,4.3,1.6c2.3,0.5,4,1.1,5.1,1.7c1.1,0.6,1.9,1.4,2.6,2.4c0.6,1,0.9,2.2,0.9,3.7c0,1.3-0.4,2.6-1.1,3.7
		c-0.7,1.2-1.8,2-3.1,2.6c-1.4,0.6-3,0.8-5,0.8c-2.9,0-5.2-0.7-6.8-2S223.1,59.9,222.8,57.3z"/>
        <path fill="#F9BB05" d="M244.5,57.3l4.6-0.4c0.3,1.5,0.8,2.7,1.7,3.4c0.8,0.7,2,1.1,3.4,1.1c1.5,0,2.6-0.3,3.4-1
		c0.8-0.6,1.1-1.4,1.1-2.2c0-0.5-0.2-1-0.5-1.4c-0.3-0.4-0.9-0.7-1.7-1c-0.5-0.2-1.8-0.5-3.8-1c-2.5-0.6-4.3-1.4-5.3-2.3
		c-1.4-1.3-2.1-2.8-2.1-4.7c0-1.2,0.3-2.3,1-3.3c0.7-1,1.6-1.8,2.9-2.4c1.3-0.5,2.8-0.8,4.6-0.8c2.9,0,5.1,0.6,6.6,1.9
		c1.5,1.3,2.2,3,2.3,5.1l-4.7,0.2c-0.2-1.2-0.6-2-1.3-2.6s-1.6-0.8-3-0.8c-1.4,0-2.4,0.3-3.2,0.8c-0.5,0.4-0.7,0.8-0.7,1.4
		c0,0.5,0.2,1,0.7,1.4c0.6,0.5,2,1,4.3,1.6c2.3,0.5,4,1.1,5.1,1.7c1.1,0.6,1.9,1.4,2.6,2.4c0.6,1,0.9,2.2,0.9,3.7
		c0,1.3-0.4,2.6-1.1,3.7c-0.7,1.2-1.8,2-3.1,2.6c-1.4,0.6-3,0.8-5,0.8c-2.9,0-5.2-0.7-6.8-2S244.8,59.9,244.5,57.3z"/>
        <path fill="#F9BB05" d="M266.4,53.4c0-2.4,0.4-4.3,1.1-6c0.5-1.2,1.2-2.2,2.2-3.2c0.9-0.9,1.9-1.6,3-2.1c1.4-0.6,3.1-0.9,5-0.9
		c3.4,0,6.2,1.1,8.2,3.2c2.1,2.1,3.1,5.1,3.1,8.8c0,3.7-1,6.7-3.1,8.8c-2,2.1-4.8,3.2-8.2,3.2c-3.5,0-6.2-1.1-8.2-3.2
		C267.4,60,266.4,57.1,266.4,53.4z M271.2,53.2c0,2.6,0.6,4.6,1.8,6c1.2,1.4,2.8,2,4.6,2c1.9,0,3.4-0.7,4.6-2
		c1.2-1.3,1.8-3.4,1.8-6.1c0-2.7-0.6-4.6-1.8-6c-1.2-1.3-2.7-2-4.6-2c-1.9,0-3.5,0.7-4.7,2C271.8,48.6,271.2,50.6,271.2,53.2z"/>
        <path fill="#F9BB05" d="M307.5,56.3l4.5,1.4c-0.7,2.5-1.9,4.4-3.5,5.6c-1.6,1.2-3.7,1.8-6.2,1.8c-3.1,0-5.6-1.1-7.6-3.2
		c-2-2.1-3-5-3-8.6c0-3.9,1-6.9,3-9c2-2.1,4.6-3.2,7.9-3.2c2.8,0,5.1,0.8,6.9,2.5c1.1,1,1.8,2.4,2.4,4.3l-4.6,1.1
		c-0.3-1.2-0.8-2.2-1.7-2.8c-0.9-0.7-1.9-1-3.2-1c-1.7,0-3.1,0.6-4.2,1.9c-1.1,1.2-1.6,3.2-1.6,6c0,2.9,0.5,5,1.6,6.3
		c1.1,1.2,2.4,1.9,4.1,1.9c1.2,0,2.3-0.4,3.2-1.2C306.5,59.3,307.1,58,307.5,56.3z"/>
        <path fill="#F9BB05" d="M316,64.9V41.7h4.7v23.2H316z"/>
        <path fill="#F9BB05" d="M346.1,64.9H341l-2-5.3h-9.3l-1.9,5.3h-5l9-23.2h5L346.1,64.9z M337.5,55.7l-3.2-8.6l-3.1,8.6H337.5z"/>
        <path fill="#F9BB05" d="M346.6,64.9v-4.2l12.2-15.1H348v-3.9h17v3.6L352.3,61h13.2v3.9H346.6z"/>
        <path fill="#F9BB05" d="M368.4,64.9V41.7h4.7v23.2H368.4z"/>
        <path fill="#F9BB05" d="M376.6,53.4c0-2.4,0.4-4.3,1.1-6c0.5-1.2,1.2-2.2,2.2-3.2c0.9-0.9,1.9-1.6,3-2.1c1.4-0.6,3.1-0.9,5-0.9
		c3.4,0,6.2,1.1,8.2,3.2c2.1,2.1,3.1,5.1,3.1,8.8c0,3.7-1,6.7-3.1,8.8c-2,2.1-4.8,3.2-8.2,3.2c-3.5,0-6.2-1.1-8.2-3.2
		S376.6,57.1,376.6,53.4z M381.5,53.2c0,2.6,0.6,4.6,1.8,6c1.2,1.4,2.8,2,4.6,2s3.4-0.7,4.6-2c1.2-1.3,1.8-3.4,1.8-6.1
		c0-2.7-0.6-4.6-1.8-6c-1.2-1.3-2.7-2-4.6-2c-1.9,0-3.5,0.7-4.7,2C382.1,48.6,381.5,50.6,381.5,53.2z"/>
        <path fill="#F9BB05" d="M402.9,64.9V41.7h4.6l9.5,15.5V41.7h4.4v23.2h-4.7l-9.4-15.1v15.1H402.9z"/>
        <path fill="#F9BB05" d="M426.4,64.9V41.7h17.2v3.9H431v5.1h11.6v3.9H431V61h13v3.9H426.4z"/>
    </g>
    <g>
        <path fill="#007C2F" d="M200.6,107.7V81h5.4v26.7H200.6z"/>
        <path fill="#007C2F" d="M227.8,107.7V85.5h-7.9V81h21.2v4.5h-7.9v22.2H227.8z"/>
        <path fill="#007C2F" d="M276.6,107.7h-5.9l-2.3-6.1h-10.7l-2.2,6.1h-5.7L260.2,81h5.7L276.6,107.7z M266.7,97.2l-3.7-9.9l-3.6,9.9
		H266.7z"/>
        <path fill="#007C2F" d="M290.3,107.7V81.2h5.4v22h13.4v4.5H290.3z"/>
        <path fill="#007C2F" d="M323.5,107.7V81h5.4v26.7H323.5z"/>
        <path fill="#007C2F" d="M368.9,107.7H363l-2.3-6.1H350l-2.2,6.1H342L352.4,81h5.7L368.9,107.7z M358.9,97.2l-3.7-9.9l-3.6,9.9
		H358.9z"/>
        <path fill="#007C2F" d="M382.5,107.7V81h5.3l10.9,17.9V81h5v26.7h-5.4l-10.8-17.4v17.4H382.5z"/>
        <path fill="#007C2F" d="M444.2,107.7h-5.9l-2.3-6.1h-10.7l-2.2,6.1h-5.7L427.8,81h5.7L444.2,107.7z M434.2,97.2l-3.7-9.9l-3.6,9.9
		H434.2z"/>
    </g>
    <g>
        <path fill="#F9BB05" d="M200.5,123.9h8.7c2,0,3.5,0.2,4.5,0.4c1.4,0.4,2.6,1.1,3.5,2.2c1,1,1.7,2.3,2.2,3.8
		c0.5,1.5,0.8,3.4,0.8,5.6c0,1.9-0.2,3.6-0.7,5c-0.6,1.7-1.4,3.1-2.5,4.2c-0.8,0.8-1.9,1.4-3.3,1.9c-1,0.3-2.5,0.5-4.2,0.5h-8.9
		V123.9z M205.2,127.9v15.6h3.5c1.3,0,2.3-0.1,2.9-0.2c0.8-0.2,1.4-0.5,1.9-1c0.5-0.5,0.9-1.2,1.2-2.3c0.3-1.1,0.5-2.5,0.5-4.3
		c0-1.8-0.2-3.2-0.5-4.2c-0.3-1-0.8-1.7-1.3-2.3c-0.6-0.5-1.3-0.9-2.2-1.1c-0.7-0.2-2-0.2-3.9-0.2H205.2z"/>
        <path fill="#F9BB05" d="M233.2,147.4v-23.5h4.8v23.5H233.2z"/>
        <path fill="#F9BB05" d="M250.3,139.8l4.6-0.4c0.3,1.6,0.8,2.7,1.7,3.4c0.9,0.7,2,1.1,3.4,1.1c1.5,0,2.7-0.3,3.5-1
		c0.8-0.6,1.2-1.4,1.2-2.3c0-0.6-0.2-1-0.5-1.4c-0.3-0.4-0.9-0.7-1.7-1c-0.6-0.2-1.8-0.5-3.8-1c-2.5-0.6-4.3-1.4-5.4-2.3
		c-1.4-1.3-2.2-2.9-2.2-4.7c0-1.2,0.3-2.3,1-3.4c0.7-1,1.7-1.8,2.9-2.4c1.3-0.5,2.8-0.8,4.6-0.8c3,0,5.2,0.6,6.7,1.9s2.3,3,2.4,5.2
		l-4.8,0.2c-0.2-1.2-0.6-2.1-1.3-2.6c-0.7-0.5-1.7-0.8-3-0.8c-1.4,0-2.5,0.3-3.2,0.9c-0.5,0.4-0.8,0.9-0.8,1.5c0,0.6,0.2,1,0.7,1.4
		c0.6,0.5,2.1,1,4.4,1.6c2.3,0.5,4,1.1,5.1,1.7s2,1.4,2.6,2.4c0.6,1,0.9,2.3,0.9,3.8c0,1.3-0.4,2.6-1.1,3.8
		c-0.7,1.2-1.8,2.1-3.2,2.6c-1.4,0.6-3.1,0.9-5.1,0.9c-3,0-5.3-0.7-6.9-2.1C251.6,144.4,250.7,142.4,250.3,139.8z"/>
        <path fill="#F9BB05" d="M282.7,147.4v-23.4h4.8v19.4h11.8v4H282.7z"/>
        <path fill="#F9BB05" d="M311.7,147.4v-23.5h17.5v4h-12.7v5.2h11.8v4h-11.8v6.4h13.2v4H311.7z"/>
        <path fill="#F9BB05" d="M341.5,139.8l4.6-0.4c0.3,1.6,0.8,2.7,1.7,3.4c0.9,0.7,2,1.1,3.4,1.1c1.5,0,2.7-0.3,3.5-1
		c0.8-0.6,1.2-1.4,1.2-2.3c0-0.6-0.2-1-0.5-1.4c-0.3-0.4-0.9-0.7-1.7-1c-0.6-0.2-1.8-0.5-3.8-1c-2.5-0.6-4.3-1.4-5.4-2.3
		c-1.4-1.3-2.2-2.9-2.2-4.7c0-1.2,0.3-2.3,1-3.4c0.7-1,1.7-1.8,2.9-2.4c1.3-0.5,2.8-0.8,4.6-0.8c3,0,5.2,0.6,6.7,1.9
		c1.5,1.3,2.3,3,2.4,5.2l-4.8,0.2c-0.2-1.2-0.6-2.1-1.3-2.6c-0.7-0.5-1.7-0.8-3-0.8c-1.4,0-2.5,0.3-3.2,0.9
		c-0.5,0.4-0.8,0.9-0.8,1.5c0,0.6,0.2,1,0.7,1.4c0.6,0.5,2.1,1,4.4,1.6c2.3,0.5,4,1.1,5.1,1.7s2,1.4,2.6,2.4c0.6,1,0.9,2.3,0.9,3.8
		c0,1.3-0.4,2.6-1.1,3.8c-0.7,1.2-1.8,2.1-3.2,2.6c-1.4,0.6-3.1,0.9-5.1,0.9c-3,0-5.3-0.7-6.9-2.1
		C342.8,144.4,341.9,142.4,341.5,139.8z"/>
        <path fill="#F9BB05" d="M372.6,139.8l4.6-0.4c0.3,1.6,0.8,2.7,1.7,3.4c0.9,0.7,2,1.1,3.4,1.1c1.5,0,2.7-0.3,3.5-1
		c0.8-0.6,1.2-1.4,1.2-2.3c0-0.6-0.2-1-0.5-1.4c-0.3-0.4-0.9-0.7-1.7-1c-0.6-0.2-1.8-0.5-3.8-1c-2.5-0.6-4.3-1.4-5.4-2.3
		c-1.4-1.3-2.2-2.9-2.2-4.7c0-1.2,0.3-2.3,1-3.4c0.7-1,1.7-1.8,2.9-2.4c1.3-0.5,2.8-0.8,4.6-0.8c3,0,5.2,0.6,6.7,1.9s2.3,3,2.4,5.2
		l-4.8,0.2c-0.2-1.2-0.6-2.1-1.3-2.6c-0.7-0.5-1.7-0.8-3-0.8c-1.4,0-2.5,0.3-3.2,0.9c-0.5,0.4-0.8,0.9-0.8,1.5c0,0.6,0.2,1,0.7,1.4
		c0.6,0.5,2.1,1,4.4,1.6c2.3,0.5,4,1.1,5.1,1.7c1.1,0.6,2,1.4,2.6,2.4c0.6,1,0.9,2.3,0.9,3.8c0,1.3-0.4,2.6-1.1,3.8
		s-1.8,2.1-3.2,2.6c-1.4,0.6-3.1,0.9-5.1,0.9c-3,0-5.3-0.7-6.9-2.1C373.8,144.4,372.9,142.4,372.6,139.8z"/>
        <path fill="#F9BB05" d="M404.6,147.4v-23.5h4.8v23.5H404.6z"/>
        <path fill="#F9BB05" d="M444.2,147.4h-5.2l-2.1-5.3h-9.4l-1.9,5.3h-5l9.2-23.5h5L444.2,147.4z M435.5,138.1l-3.2-8.7l-3.2,8.7
		H435.5z"/>
    </g>
</svg>
